<mxfile host="Electron" modified="2023-08-19T20:06:24.874Z" agent="Mozilla/5.0 (X11; Linux x86_64) AppleWebKit/537.36 (KHTML, like Gecko) draw.io/21.3.7 Chrome/112.0.5615.204 Electron/24.5.0 Safari/537.36" etag="JTVLDbsuTGYVIN_lKvbO" version="21.3.7" type="device">
  <diagram name="Page-1" id="t7zBYWSW2sLbowYirpvL">
    <mxGraphModel dx="989" dy="575" grid="1" gridSize="10" guides="1" tooltips="1" connect="1" arrows="1" fold="1" page="1" pageScale="1" pageWidth="850" pageHeight="1100" math="0" shadow="0">
      <root>
        <mxCell id="0" />
        <mxCell id="1" parent="0" />
        <mxCell id="ttIAzhwr1_i5MhO7OpXb-1" value="Segments" style="rounded=1;whiteSpace=wrap;html=1;labelPosition=center;verticalLabelPosition=bottom;align=center;verticalAlign=top;" vertex="1" parent="1">
          <mxGeometry x="70" y="230" width="440" height="190" as="geometry" />
        </mxCell>
        <mxCell id="ttIAzhwr1_i5MhO7OpXb-2" value="Segment 1" style="rounded=0;whiteSpace=wrap;html=1;fillColor=#dae8fc;strokeColor=#6c8ebf;" vertex="1" parent="1">
          <mxGeometry x="100" y="240" width="380" height="50" as="geometry" />
        </mxCell>
        <mxCell id="ttIAzhwr1_i5MhO7OpXb-6" value="" style="edgeStyle=orthogonalEdgeStyle;rounded=0;orthogonalLoop=1;jettySize=auto;html=1;" edge="1" parent="1" source="ttIAzhwr1_i5MhO7OpXb-3" target="ttIAzhwr1_i5MhO7OpXb-5">
          <mxGeometry relative="1" as="geometry" />
        </mxCell>
        <mxCell id="ttIAzhwr1_i5MhO7OpXb-3" value="Segment 2" style="rounded=0;whiteSpace=wrap;html=1;fillColor=#dae8fc;strokeColor=#6c8ebf;" vertex="1" parent="1">
          <mxGeometry x="100" y="300" width="380" height="50" as="geometry" />
        </mxCell>
        <mxCell id="ttIAzhwr1_i5MhO7OpXb-5" value="Active segment" style="rounded=0;whiteSpace=wrap;html=1;fillColor=#d5e8d4;strokeColor=#82b366;" vertex="1" parent="1">
          <mxGeometry x="100" y="360" width="380" height="50" as="geometry" />
        </mxCell>
        <mxCell id="ttIAzhwr1_i5MhO7OpXb-7" style="edgeStyle=orthogonalEdgeStyle;rounded=0;orthogonalLoop=1;jettySize=auto;html=1;exitX=0.5;exitY=1;exitDx=0;exitDy=0;" edge="1" parent="1" source="ttIAzhwr1_i5MhO7OpXb-1" target="ttIAzhwr1_i5MhO7OpXb-1">
          <mxGeometry relative="1" as="geometry" />
        </mxCell>
        <mxCell id="ttIAzhwr1_i5MhO7OpXb-8" value="Segment" style="rounded=1;whiteSpace=wrap;html=1;labelPosition=center;verticalLabelPosition=bottom;align=center;verticalAlign=top;" vertex="1" parent="1">
          <mxGeometry x="70" y="470" width="440" height="150" as="geometry" />
        </mxCell>
        <mxCell id="ttIAzhwr1_i5MhO7OpXb-9" value="Index file" style="rounded=0;whiteSpace=wrap;html=1;fillColor=#e1d5e7;strokeColor=#9673a6;" vertex="1" parent="1">
          <mxGeometry x="100" y="480" width="380" height="60" as="geometry" />
        </mxCell>
        <mxCell id="ttIAzhwr1_i5MhO7OpXb-10" value="Store file" style="rounded=0;whiteSpace=wrap;html=1;fillColor=#dae8fc;strokeColor=#6c8ebf;" vertex="1" parent="1">
          <mxGeometry x="100" y="550" width="380" height="60" as="geometry" />
        </mxCell>
      </root>
    </mxGraphModel>
  </diagram>
</mxfile>
